<svg width="69" height="69" viewBox="0 0 69 69" fill="none" xmlns="http://www.w3.org/2000/svg">
    <rect width="69" height="69" rx="12" fill="#1A1D2E"/>
    <path d="M48.185 41.807a1.25 1.25 0 1 0-2.457.46c.094.504-.127.862-.267 1.032-.14.168-.451.451-.962.451H25.525c-.51 0-.822-.283-.961-.451a1.237 1.237 0 0 1-.268-1.032c.355-1.892 1.066-3.136 1.754-4.34.836-1.461 1.7-2.972 1.7-5.302V30.75c0-3.942 3.204-7.192 7.144-7.25h.236c3.927.058 7.12 3.308 7.12 7.25v1.875c0 1.983.649 3.347 1.257 4.47a1.25 1.25 0 1 0 2.198-1.19c-.605-1.117-.955-2.012-.955-3.28V30.75a9.702 9.702 0 0 0-2.806-6.842 9.654 9.654 0 0 0-5.694-2.831V19.25a1.25 1.25 0 1 0-2.5 0v1.83c-4.779.62-8.5 4.744-8.5 9.67v1.875c0 1.665-.605 2.723-1.37 4.062-.754 1.319-1.609 2.814-2.04 5.12a3.742 3.742 0 0 0 .8 3.088 3.738 3.738 0 0 0 2.885 1.355h5.75a3.754 3.754 0 0 0 3.75 3.75 3.754 3.754 0 0 0 3.75-3.75h5.724c1.12 0 2.17-.494 2.885-1.355a3.742 3.742 0 0 0 .801-3.088zM35.025 47.5c-.69 0-1.25-.56-1.25-1.25h2.5c0 .69-.561 1.25-1.25 1.25zM25.773 20.819a1.25 1.25 0 0 0-1.765.097 14.725 14.725 0 0 0-3.758 9.834 1.25 1.25 0 1 0 2.5 0c0-3.018 1.108-5.919 3.12-8.166a1.25 1.25 0 0 0-.097-1.765zM45.993 20.916a1.25 1.25 0 0 0-1.863 1.668 12.228 12.228 0 0 1 3.12 8.166 1.25 1.25 0 1 0 2.5 0c0-3.634-1.334-7.127-3.757-9.834z" fill="#FF833D"/>
</svg>
