<svg width="69" height="69" viewBox="0 0 69 69" fill="none" xmlns="http://www.w3.org/2000/svg">
    <rect width="69" height="69" rx="12" fill="#1A1D2E"/>
    <path d="M35 18.031c-3.296 0-6.53 1.017-9.193 2.875a2.811 2.811 0 0 0-3.88 3.856A16.122 16.122 0 0 0 19 34.032c0 8.83 7.215 15.937 16 15.937 8.822 0 16-7.15 16-15.938 0-8.81-7.19-16-16-16zm-11.332 4.606a.938.938 0 0 1 1.243-.073c.025.046.188.247.246.293a.939.939 0 1 1-1.49-.22zM21.772 38.96l10.757-3.213-6.745 8.931a14.118 14.118 0 0 1-4.012-5.718zm17.93-9.695a2.815 2.815 0 0 0 2.787.708A8.675 8.675 0 0 1 43.5 34.03c0 3.754-2.522 7.038-6.1 8.091a2.816 2.816 0 0 0-4.913-.035 8.886 8.886 0 0 1-1.806-.78l2.298-3.044c.626.3 1.311.456 2.02.456 2.592 0 4.75-2.096 4.75-4.688 0-2.592-2.158-4.75-4.75-4.75-2.588 0-4.75 2.155-4.75 4.75 0 .146.008.29.022.435l-3.634 1.085a8.464 8.464 0 0 1-.137-1.52c0-4.687 3.813-8.5 8.5-8.5a8.68 8.68 0 0 1 3.987.974c-.27.95-.035 2.01.716 2.76zm1.149-2.402a.904.904 0 0 0 .227-.294.937.937 0 1 1-.227.294zm-5.255 17.272a.939.939 0 1 1-1.326-1.33.939.939 0 0 1 1.326 1.33zm.174-10.64a.937.937 0 0 0-1.038-.363l-2.604.778c.066-1.505 1.354-2.755 2.872-2.755 1.558 0 2.875 1.317 2.875 2.875 0 1.525-1.317 2.813-2.875 2.813-.293 0-.578-.045-.85-.13l1.598-2.118a.938.938 0 0 0 .022-1.1zM35 48.094c-2.845 0-5.496-.843-7.716-2.29l2.26-2.991c.802.488 1.688.872 2.619 1.134.094.555.354 1.087.782 1.515a2.816 2.816 0 0 0 3.977 0c.418-.418.676-.936.775-1.477 4.46-1.21 7.678-5.274 7.678-9.954 0-1.811-.48-3.622-1.358-5.17a2.81 2.81 0 0 0-3.93-3.893A10.565 10.565 0 0 0 35 23.656c-5.694 0-10.375 4.684-10.375 10.375 0 .695.071 1.384.208 2.059l-3.604 1.076a13.998 13.998 0 0 1-.354-3.135c0-2.898.888-5.74 2.512-8.083a2.815 2.815 0 0 0 2.933-.66 2.816 2.816 0 0 0 .665-2.918A14.247 14.247 0 0 1 35 19.907c7.789 0 14.125 6.337 14.125 14.125 0 7.754-6.336 14.063-14.125 14.063z" fill="#7B3DFF"/>
</svg>
