<svg width="29" height="33" viewBox="0 0 29 33" fill="none" xmlns="http://www.w3.org/2000/svg">
    <mask id="8nkfjxu09a" style="mask-type:alpha" maskUnits="userSpaceOnUse" x="0" y="0" width="29" height="17">
        <path fill-rule="evenodd" clip-rule="evenodd" d="M0 .667h28.544v16.288H0V.668z" fill="#fff"/>
    </mask>
    <g mask="url(#8nkfjxu09a)">
        <path fill-rule="evenodd" clip-rule="evenodd" d="M28.544 11.01v4.918c0 .847-1.12 1.33-1.901.818l-9.51-6.226c-1.692-1.108-4.03-1.108-5.723 0L1.9 16.746c-.78.511-1.9.03-1.9-.818v-4.934C0 9.707.698 8.495 1.884 7.72l9.527-6.224C13.104.39 15.44.39 17.131 1.498l9.532 6.242c1.185.775 1.88 1.986 1.88 3.27" fill="#fff"/>
    </g>
    <path fill-rule="evenodd" clip-rule="evenodd" d="M11.576 19.333v5.282c0 1.268-.74 2.461-1.998 3.222l-7.583 4.585c-.822.497-1.995.023-1.995-.806v-5.282c0-1.267.74-2.46 1.997-3.22l7.584-4.586c.822-.497 1.995-.024 1.995.805" fill="#fff"/>
    <mask id="83oyjhoinb" style="mask-type:alpha" maskUnits="userSpaceOnUse" x="17" y="17" width="12" height="16">
        <path fill-rule="evenodd" clip-rule="evenodd" d="M17.025 17.694h11.516v14.432H17.025V17.694z" fill="#fff"/>
    </mask>
    <g mask="url(#83oyjhoinb)">
        <path fill-rule="evenodd" clip-rule="evenodd" d="M28.54 25.826v5.29c0 .83-1.148 1.304-1.953.806L18.98 27.22c-1.23-.76-1.956-1.956-1.956-3.226v-5.29c0-.83 1.15-1.304 1.954-.806l7.606 4.703c1.231.761 1.956 1.957 1.956 3.226" fill="#fff"/>
    </g>
</svg>
