<svg width="58" height="58" viewBox="0 0 58 58" fill="none" xmlns="http://www.w3.org/2000/svg">
    <path d="M41.76 30.037a7.075 7.075 0 1 0 6.997 7.076 7.037 7.037 0 0 0-6.997-7.076zm.696 10.397c0 .446-.21.814-.46.853a2.46 2.46 0 0 1-.63 0c-.263 0-.46-.394-.473-.84-.013-.447 0-1.195 0-2.009v-1.903c0-.446.21-.8.473-.84.204-.034.413-.034.617 0 .262 0 .46.394.473.84.013.446 0 1.22 0 2.074.039.578.013 1.195 0 1.825zm-.775-5.606a.957.957 0 0 1-.971-.958.97.97 0 1 1 1.93 0 .958.958 0 0 1-.959.958zM23.985 25.154a2.625 2.625 0 0 0-2.625 2.625 2.625 2.625 0 0 0-2.626-2.625 2.625 2.625 0 0 0 2.626-2.626 2.625 2.625 0 0 0 2.625 2.626zM21.32 19.863a6.036 6.036 0 0 0-6.051 6.026 6.038 6.038 0 0 0-6.039-6.026 6.038 6.038 0 0 0 6.039-6.038 6.04 6.04 0 0 0 6.051 6.038zM46.905 18.866H29.25a1.313 1.313 0 0 1 0-2.626h17.656a1.313 1.313 0 0 1 0 2.626zM46.905 25.836H29.25a1.313 1.313 0 0 1 0-2.625h17.656a1.313 1.313 0 0 1 0 2.625zM29.433 34.841H11.778a1.313 1.313 0 0 1 0-2.625h17.655a1.313 1.313 0 0 1 0 2.625zM29.433 41.812H11.778a1.313 1.313 0 0 1 0-2.625h17.655a1.313 1.313 0 0 1 0 2.625z" fill="#3887FA"/>
</svg>
