<svg width="58" height="58" viewBox="0 0 58 58" fill="none" xmlns="http://www.w3.org/2000/svg">
    <path d="M43.347 14.73A49.256 49.256 0 0 1 30.05 9.192a1.917 1.917 0 0 0-1.011-.289 1.97 1.97 0 0 0-1.063.315 45.602 45.602 0 0 1-13.285 5.487 2.009 2.009 0 0 0-1.562 1.943v11.578a19.442 19.442 0 0 0 8.27 15.924l6.445 4.555c.338.24.742.368 1.156.367.41.003.81-.126 1.142-.367l6.445-4.555a19.415 19.415 0 0 0 8.283-15.95V16.66a1.996 1.996 0 0 0-1.523-1.93zm-1.102 13.495a16.869 16.869 0 0 1-7.168 13.81L29 46.328l-6.091-4.306a16.854 16.854 0 0 1-7.155-13.797V17.146a48.425 48.425 0 0 0 13.285-5.5 52.81 52.81 0 0 0 13.206 5.526v11.053z" fill="#EF5144"/>
    <path fill-rule="evenodd" clip-rule="evenodd" d="M35.038 26.69h-.761v-2.232a5.25 5.25 0 0 0-6.328-5.251 5.434 5.434 0 0 0-4.24 5.382v2.1h-.748a1.523 1.523 0 0 0-1.51 1.523v1.995A7.876 7.876 0 0 0 29 38.15a7.876 7.876 0 0 0 7.548-7.942v-1.995a1.523 1.523 0 0 0-1.51-1.523zm-9.058-2.1a3.124 3.124 0 0 1 2.508-3.138 3.02 3.02 0 0 1 3.53 3.006v2.231H25.98v-2.1zm6.498 6.563-3.662 3.662a1.311 1.311 0 0 1-.932.38 1.313 1.313 0 0 1-.92-.38l-1.89-1.825a1.312 1.312 0 1 1 1.865-1.85l.945.945 2.73-2.73a1.312 1.312 0 0 1 1.864 0 1.313 1.313 0 0 1 0 1.85v-.052z" fill="#EF5144"/>
    <path d="M18.17 7.051a4.896 4.896 0 0 0-4.897 4.896 4.895 4.895 0 0 0-4.896-4.896 4.897 4.897 0 0 0 4.896-4.91 4.895 4.895 0 0 0 4.897 4.91zM10.32 17.094a3.321 3.321 0 0 0-3.321 3.308 3.308 3.308 0 0 0-3.321-3.308 3.334 3.334 0 0 0 3.32-3.335 3.334 3.334 0 0 0 3.322 3.335z" fill="#EF5144"/>
</svg>
