<svg width="58" height="58" viewBox="0 0 58 58" fill="none" xmlns="http://www.w3.org/2000/svg">
    <path d="M36.106 42.38a1.315 1.315 0 1 1-.157-2.625 10.223 10.223 0 0 0 8.845-8.846 54.896 54.896 0 0 0-.157-14.252 9.83 9.83 0 0 0-8.373-8.36 36.957 36.957 0 0 0-10.933-.158 1.313 1.313 0 0 1-.813-2.48c.204-.085.422-.134.643-.145a39.595 39.595 0 0 1 11.457.171 12.52 12.52 0 0 1 10.63 10.63c.693 4.952.745 9.971.158 14.936A12.901 12.901 0 0 1 36.264 42.38h-.158zM21.526 42.222h-.184a12.48 12.48 0 0 1-10.63-10.617 48.726 48.726 0 0 1-.276-12.192 1.312 1.312 0 0 1 2.612.249 46.023 46.023 0 0 0 .262 11.588 9.856 9.856 0 0 0 8.387 8.374 1.312 1.312 0 0 1 1.115 1.483 1.313 1.313 0 0 1-1.286 1.115z" fill="#FD8347"/>
    <path d="M23.298 18.1c-2.625 2.625-8.846 1.614-11.563 1.418 0-.38.08-.762.119-1.168.34-2.98 9.974-11.09 13.229-11.51 0 3.176.446 9.042-1.785 11.26z" fill="#FD8347"/>
    <path d="M17.011 21.184c-1.522 0-2.979-.13-4.16-.249l-1.208-.105-1.312-.092.092-1.312V18.23c.42-3.674 10.657-12.205 14.436-12.69l1.47-.184v2.795c0 3.596.131 8.531-2.192 10.854-1.64 1.759-4.462 2.178-7.126 2.178zm-3.819-2.847c2.625.249 7.363.656 9.187-1.155 1.457-1.444 1.457-5.696 1.417-8.492-3.543 1.785-10.026 7.534-10.604 9.647zM28.993 52.813a1.312 1.312 0 0 1-1.312-1.312V34.44a1.312 1.312 0 1 1 2.624 0V51.5a1.312 1.312 0 0 1-1.312 1.313z" fill="#FD8347"/>
    <path d="M28.954 52.813a1.311 1.311 0 0 1-.932-.393l-4.436-4.436a1.312 1.312 0 0 1 1.85-1.85l3.518 3.503 3.583-3.583a1.313 1.313 0 1 1 1.85 1.85l-4.515 4.516a1.312 1.312 0 0 1-.918.393zM40.976 17.418a5.25 5.25 0 0 0-5.25 5.184 5.25 5.25 0 0 0-5.25-5.184 5.25 5.25 0 0 0 5.25-5.25 5.25 5.25 0 0 0 5.25 5.25zM34.099 24.78a3.518 3.518 0 0 0-3.518 3.518 3.517 3.517 0 0 0-3.504-3.518 3.517 3.517 0 0 0 3.517-3.517A3.517 3.517 0 0 0 34.1 24.78z" fill="#FD8347"/>
</svg>
