<svg width="58" height="58" viewBox="0 0 58 58" fill="none" xmlns="http://www.w3.org/2000/svg">
    <path d="M14.52 39.383v.158a2.258 2.258 0 0 1-.131-.84c.012.232.056.462.131.682zM16.043 36.102a10.278 10.278 0 0 0 1.602-2.166 9.072 9.072 0 0 1-1.602 2.166zM40.21 33.07a9.515 9.515 0 0 1-.748-3.177c.105.63.184 1.247.328 1.85.19.756.468 1.488.827 2.18a2.213 2.213 0 0 1-.407-.854zM43.65 39.541a2.626 2.626 0 0 1-2.52 1.759h-.342a3.69 3.69 0 0 0 1.313-.236 2.52 2.52 0 0 0 1.549-1.523zM43.794 38.661a2.627 2.627 0 0 0-.88-1.837l-.722-.683.539.499a2.625 2.625 0 0 1 1.063 2.021z" fill="#828CA2"/>
    <path d="M24.616 43.755h9.03a.789.789 0 0 1 .75 1.076 6.144 6.144 0 0 1-4.832 3.44 5.75 5.75 0 0 1-5.697-3.453.788.788 0 0 1 .748-1.063zM29.105 17.514H29.71c.444.03.884.104 1.313.223a7.6 7.6 0 0 1 5.71 7.47v4.804c.086 1.388.41 2.751.958 4.03.147.365.318.72.512 1.063a11.482 11.482 0 0 0 2.061 2.81l.722.708h-23.8c.263-.236.5-.472.697-.67a12.024 12.024 0 0 0 2.008-2.717c.197-.354.367-.735.538-1.115.538-1.282.857-2.644.945-4.03v-4.858a7.627 7.627 0 0 1 5.71-7.469c.396-.11.8-.185 1.208-.223h.722l.092-.026zm-.092-2.6h-.827a8.695 8.695 0 0 0-1.811.303 10.253 10.253 0 0 0-7.627 10.002v4.66A9.518 9.518 0 0 1 18 33.056a6.564 6.564 0 0 1-.42.867 9.071 9.071 0 0 1-1.602 2.166 9.119 9.119 0 0 1-.722.695 2.624 2.624 0 0 0-.866 1.838c-.001.23.03.46.092.683v.157a2.547 2.547 0 0 0 1.496 1.523c.44.164.908.245 1.378.236h23.432a3.69 3.69 0 0 0 1.313-.236 2.522 2.522 0 0 0 1.496-1.523.472.472 0 0 0 0-.144 3.15 3.15 0 0 0 .092-.683 2.623 2.623 0 0 0-.88-1.838l-.721-.682a9.546 9.546 0 0 1-1.641-2.206c-.145-.275-.276-.564-.407-.853a9.516 9.516 0 0 1-.748-3.177v-4.66a10.253 10.253 0 0 0-7.548-9.95 8.44 8.44 0 0 0-1.799-.302h-.84l-.092-.052zM21.911 12.643a3.244 3.244 0 0 0-3.242 3.256 3.256 3.256 0 0 0-3.256-3.256 3.242 3.242 0 0 0 3.256-3.242 3.228 3.228 0 0 0 3.242 3.242zM16.319 18.747a2.166 2.166 0 0 0-2.166 2.153A2.153 2.153 0 0 0 12 18.748a2.14 2.14 0 0 0 2.153-2.167 2.153 2.153 0 0 0 2.166 2.166zM42.442 20.165a1.313 1.313 0 0 1-1.313-1.037c-.682-3.15-4.227-4.988-4.253-5.014a1.313 1.313 0 0 1 1.182-2.337c.197.092 4.686 2.416 5.631 6.8a1.311 1.311 0 0 1-1.01 1.562l-.237.026z" fill="#46D1FD"/>
    <path d="M28.067 35.524v-.564c0-.184 0-.17-.157-.184-.42 0-.827-.079-1.234-.158a8.533 8.533 0 0 1-1.129-.328.735.735 0 0 1-.486-.892c.041-.246.103-.487.184-.722a.762.762 0 0 1 .985-.486 7.95 7.95 0 0 0 1.628.394c.628.1 1.271.012 1.85-.25a1.01 1.01 0 0 0 .276-1.64 2.956 2.956 0 0 0-1.116-.67c-.394-.158-.814-.289-1.207-.46a4.883 4.883 0 0 1-2.114-1.391 2.756 2.756 0 0 1-.564-2.192 3.216 3.216 0 0 1 2.284-2.626c.24-.086.486-.156.735-.21.131 0 .157-.091.157-.21v-1.102a.447.447 0 0 1 .512-.512h.801a.434.434 0 0 1 .499.472v1.024c0 .131 0 .17.17.17.61.03 1.214.131 1.799.303a.812.812 0 0 1 .578 1.024c0 .157-.08.328-.132.485a.774.774 0 0 1-1.037.565 6.567 6.567 0 0 0-1.811-.302 2.259 2.259 0 0 0-1.208.262.854.854 0 0 0-.118 1.431 3.7 3.7 0 0 0 1.103.63c.708.302 1.43.578 2.1.92a2.993 2.993 0 0 1 1.64 1.771 3.321 3.321 0 0 1-1.18 3.781c-.53.384-1.141.64-1.786.748a.211.211 0 0 0-.19.151.209.209 0 0 0-.007.086v1.168c0 .38-.131.525-.512.525h-.8a.433.433 0 0 1-.5-.499l-.012-.512z" fill="#46D1FD"/>
</svg>
