<svg width="58" height="58" viewBox="0 0 58 58" fill="none" xmlns="http://www.w3.org/2000/svg">
    <path d="M29.04 46.301c-4.012 0-7.9-1.391-11-3.938a1.314 1.314 0 1 1 1.666-2.022A14.676 14.676 0 1 0 15.27 24.13a1.312 1.312 0 0 1-1.68.801 1.313 1.313 0 0 1-.8-1.667 17.301 17.301 0 1 1 16.25 23.038z" fill="#7B48FB"/>
    <path d="M29.052 39.291a10.331 10.331 0 0 1-5.093-1.312 1.318 1.318 0 0 1 1.313-2.284 7.653 7.653 0 1 0-2.94-10.305 1.313 1.313 0 0 1-2.311-1.247 10.278 10.278 0 1 1 9.031 15.148zM5.752 31.756a3.846 3.846 0 0 1-3.833 3.847 3.846 3.846 0 0 1 3.833 3.846 3.846 3.846 0 0 1 3.846-3.846 3.846 3.846 0 0 1-3.846-3.847zM7.392 24.379a2.113 2.113 0 0 1-2.1 2.113 2.1 2.1 0 0 1 2.1 2.1 2.1 2.1 0 0 1 2.1-2.1 2.114 2.114 0 0 1-2.1-2.113z" fill="#7B48FB"/>
    <path d="m14.993 37.1 13.403-7.234a.723.723 0 0 0-.472-1.313l-15.28 1.274a1.76 1.76 0 0 0-1.523 2.31l1.155 4.056a1.798 1.798 0 0 0 2.717.906zM44.45 28.173a3.268 3.268 0 1 1 3.256-3.269 3.282 3.282 0 0 1-3.255 3.269zm0-3.938a.643.643 0 1 0 .63.63.644.644 0 0 0-.63-.59v-.04zM32.006 47.968a3.268 3.268 0 1 1-.026-6.536 3.268 3.268 0 0 1 .026 6.536zm0-3.938a.643.643 0 1 0 .63.63.63.63 0 0 0-.63-.59v-.04zM31.336 23.736a3.269 3.269 0 1 1 3.256-3.216 3.256 3.256 0 0 1-3.256 3.216zm0-3.938a.644.644 0 1 0 .63.643.63.63 0 0 0-.63-.604v-.04z" fill="#7B48FB"/>
</svg>
