<svg width="58" height="58" viewBox="0 0 58 58" fill="none" xmlns="http://www.w3.org/2000/svg">
<path d="M33.3057 25.2584C34.5527 25.2584 35.5636 24.2475 35.5636 23.0005C35.5636 21.7536 34.5527 20.7427 33.3057 20.7427C32.0587 20.7427 31.0479 21.7536 31.0479 23.0005C31.0479 24.2475 32.0587 25.2584 33.3057 25.2584Z" fill="#4AFDA5"/>
<path d="M24.5362 31.2184C25.7832 31.2184 26.794 30.2075 26.794 28.9605C26.794 27.7135 25.7832 26.7026 24.5362 26.7026C23.2892 26.7026 22.2783 27.7135 22.2783 28.9605C22.2783 30.2075 23.2892 31.2184 24.5362 31.2184Z" fill="#4AFDA5"/>
<path d="M15.6758 24.8121C16.9228 24.8121 17.9337 23.8012 17.9337 22.5542C17.9337 21.3073 16.9228 20.2964 15.6758 20.2964C14.4288 20.2964 13.418 21.3073 13.418 22.5542C13.418 23.8012 14.4288 24.8121 15.6758 24.8121Z" fill="#4AFDA5"/>
<path d="M24.5101 29.7614L15.2949 23.0797L16.0694 22.0164L24.5495 28.1599L41.9692 16.4111L42.7043 17.5007L24.5101 29.7614Z" fill="#4AFDA5"/>
<path d="M47.378 16.4501C46.0295 16.4501 44.7359 16.9849 43.7811 17.9373C42.8263 18.8896 42.2882 20.1818 42.2847 21.5303C42.2812 20.1818 41.7431 18.8896 40.7883 17.9373C39.8335 16.9849 38.54 16.4501 37.1914 16.4501C37.8625 16.4501 38.5269 16.3175 39.1466 16.0599C39.7663 15.8023 40.3289 15.4248 40.8022 14.9491C41.2755 14.4733 41.6502 13.9087 41.9046 13.2878C42.159 12.6668 42.2882 12.0016 42.2847 11.3306C42.2813 12.0016 42.4104 12.6668 42.6649 13.2878C42.9193 13.9087 43.2939 14.4733 43.7672 14.9491C44.2405 15.4248 44.8032 15.8023 45.4228 16.0599C46.0425 16.3175 46.7069 16.4501 47.378 16.4501V16.4501Z" fill="#4AFDA5"/>
<path d="M42.3109 46.6427C42.0949 46.6444 41.8807 46.6032 41.6809 46.5213C41.481 46.4395 41.2994 46.3187 41.1467 46.166C40.994 46.0132 40.8732 45.8316 40.7913 45.6318C40.7095 45.4319 40.6682 45.2177 40.67 45.0018V25.9544C40.67 25.5192 40.8429 25.1018 41.1506 24.7941C41.4583 24.4864 41.8757 24.3135 42.3109 24.3135C42.7461 24.3135 43.1634 24.4864 43.4711 24.7941C43.7789 25.1018 43.9517 25.5192 43.9517 25.9544V45.0018C43.9535 45.2177 43.9122 45.4319 43.8304 45.6318C43.7486 45.8316 43.6278 46.0132 43.475 46.166C43.3223 46.3187 43.1407 46.4395 42.9409 46.5213C42.741 46.6032 42.5268 46.6444 42.3109 46.6427V46.6427Z" fill="#4AFDA5"/>
<path d="M33.4105 46.6425C33.1945 46.6442 32.9803 46.603 32.7805 46.5211C32.5806 46.4393 32.399 46.3185 32.2463 46.1657C32.0936 46.013 31.9728 45.8314 31.8909 45.6316C31.8091 45.4317 31.7678 45.2175 31.7696 45.0016V31.1262C31.7696 30.691 31.9425 30.2737 32.2502 29.966C32.5579 29.6582 32.9753 29.4854 33.4105 29.4854C33.8457 29.4854 34.263 29.6582 34.5708 29.966C34.8785 30.2737 35.0514 30.691 35.0514 31.1262V45.0016C35.0531 45.2175 35.0119 45.4317 34.93 45.6316C34.8482 45.8314 34.7274 46.013 34.5747 46.1657C34.4219 46.3185 34.2403 46.4393 34.0405 46.5211C33.8406 46.603 33.6264 46.6442 33.4105 46.6425V46.6425Z" fill="#4AFDA5"/>
<path d="M24.5892 46.6424C24.3732 46.6442 24.159 46.6029 23.9592 46.5211C23.7593 46.4392 23.5777 46.3184 23.425 46.1657C23.2723 46.013 23.1515 45.8314 23.0696 45.6315C22.9878 45.4317 22.9465 45.2175 22.9483 45.0015V37.2434C22.9483 36.8082 23.1212 36.3909 23.4289 36.0831C23.7366 35.7754 24.154 35.6025 24.5892 35.6025C25.0244 35.6025 25.4417 35.7754 25.7495 36.0831C26.0572 36.3909 26.2301 36.8082 26.2301 37.2434V45.0015C26.2318 45.2175 26.1906 45.4317 26.1087 45.6315C26.0269 45.8314 25.9061 46.013 25.7534 46.1657C25.6006 46.3184 25.4191 46.4392 25.2192 46.5211C25.0193 46.6029 24.8052 46.6442 24.5892 46.6424V46.6424Z" fill="#4AFDA5"/>
<path d="M15.6233 46.6425C15.4051 46.6478 15.1881 46.6091 14.9852 46.5289C14.7822 46.4486 14.5975 46.3284 14.442 46.1753C14.2865 46.0222 14.1633 45.8394 14.0798 45.6378C13.9964 45.4362 13.9543 45.2198 13.9561 45.0016V30.5618C13.9561 30.1266 14.129 29.7092 14.4367 29.4015C14.7444 29.0938 15.1618 28.9209 15.597 28.9209C16.0322 28.9209 16.4496 29.0938 16.7573 29.4015C17.065 29.7092 17.2379 30.1266 17.2379 30.5618V45.0016C17.2396 45.2153 17.1992 45.4274 17.119 45.6255C17.0388 45.8237 16.9204 46.0041 16.7704 46.1564C16.6205 46.3088 16.442 46.4302 16.2452 46.5136C16.0483 46.597 15.837 46.6408 15.6233 46.6425V46.6425Z" fill="#4AFDA5"/>
</svg>
