<svg width="102" height="32" viewBox="0 0 102 32" fill="none" xmlns="http://www.w3.org/2000/svg">
    <path d="M98.371 31.5H3.573C1.907 31.5.5 30.05.5 28.214V3.78C.5 1.945 1.906.5 3.573.5h94.798c1.677 0 3.129 1.456 3.129 3.28v24.434c0 1.825-1.453 3.286-3.129 3.286z" stroke="#fff"/>
    <path d="M22.764 15.827c-.021-2.578 1.994-3.833 2.087-3.891-1.142-1.762-2.912-2.003-3.534-2.022-1.486-.166-2.927.941-3.684.941-.773 0-1.938-.925-3.195-.898-1.617.026-3.13 1.017-3.959 2.557-1.712 3.138-.435 7.75 1.205 10.287.82 1.242 1.78 2.63 3.035 2.58 1.227-.053 1.686-.828 3.168-.828 1.468 0 1.898.829 3.178.797 1.318-.022 2.147-1.248 2.94-2.501.948-1.424 1.328-2.827 1.343-2.899-.03-.01-2.559-1.032-2.584-4.123zM20.345 8.245c.66-.875 1.113-2.064.987-3.271-.956.044-2.15.7-2.84 1.555-.608.753-1.152 1.989-1.012 3.15 1.074.085 2.176-.573 2.865-1.434zM40.532 25.203h-1.716l-.94-3.127h-3.267l-.895 3.127h-1.671l3.237-10.646h1.999l3.253 10.646zm-2.94-4.44-.85-2.78c-.09-.283-.258-.952-.506-2.005h-.03a81.31 81.31 0 0 1-.478 2.006l-.835 2.78h2.7zM48.855 21.27c0 1.306-.333 2.338-1 3.096-.596.674-1.338 1.01-2.222 1.01-.955 0-1.641-.363-2.06-1.089h-.03v4.044h-1.61v-8.277c0-.821-.02-1.664-.06-2.528h1.417l.09 1.217h.03c.537-.917 1.352-1.374 2.446-1.374.856 0 1.57.357 2.14 1.073.573.717.86 1.66.86 2.828zm-1.64.063c0-.747-.16-1.363-.478-1.848-.349-.506-.816-.759-1.403-.759-.397 0-.758.141-1.081.419-.323.28-.535.645-.634 1.098a2.36 2.36 0 0 0-.075.52v1.28c0 .559.162 1.03.485 1.415.324.384.744.576 1.26.576.607 0 1.08-.248 1.417-.742.339-.495.508-1.148.508-1.96zM57.195 21.27c0 1.306-.333 2.338-1 3.096-.596.674-1.337 1.01-2.222 1.01-.955 0-1.641-.363-2.058-1.089h-.03v4.044h-1.611v-8.277c0-.821-.02-1.664-.06-2.528h1.416l.09 1.217h.03c.537-.917 1.352-1.374 2.447-1.374.855 0 1.569.357 2.141 1.073.57.717.857 1.66.857 2.828zm-1.64.063c0-.747-.16-1.363-.48-1.848-.348-.506-.814-.759-1.4-.759-.399 0-.76.141-1.083.419a1.96 1.96 0 0 0-.633 1.098c-.049.211-.075.384-.075.52v1.28c0 .559.162 1.03.484 1.415.323.384.743.576 1.262.576.606 0 1.079-.248 1.416-.742.339-.495.508-1.148.508-1.96zM66.518 22.217c0 .906-.297 1.643-.893 2.212-.655.621-1.567.932-2.739.932-1.082 0-1.95-.221-2.606-.664l.373-1.421c.708.453 1.484.68 2.33.68.606 0 1.078-.146 1.417-.435.338-.29.506-.679.506-1.164 0-.432-.139-.796-.417-1.09-.278-.296-.74-.57-1.388-.824-1.76-.695-2.64-1.714-2.64-3.053 0-.875.309-1.593.926-2.151.615-.56 1.436-.838 2.462-.838.915 0 1.675.168 2.282.505l-.403 1.39c-.567-.326-1.208-.489-1.925-.489-.566 0-1.009.148-1.326.442a1.299 1.299 0 0 0-.403.964c0 .421.153.77.462 1.043.268.253.755.526 1.462.821.866.37 1.5.8 1.91 1.295.407.493.61 1.11.61 1.845zM71.843 18.806h-1.775v3.727c0 .948.313 1.422.94 1.422.287 0 .526-.026.715-.08l.045 1.296c-.318.126-.736.189-1.253.189-.636 0-1.133-.206-1.492-.616-.358-.411-.537-1.1-.537-2.07v-3.87h-1.058v-1.28h1.058V16.12l1.582-.505v1.91h1.775v1.282zM79.854 21.301c0 1.18-.319 2.15-.955 2.907-.667.78-1.552 1.169-2.656 1.169-1.064 0-1.911-.374-2.543-1.121-.631-.747-.947-1.69-.947-2.827 0-1.19.325-2.164.977-2.922.65-.758 1.528-1.138 2.632-1.138 1.064 0 1.92.374 2.566 1.122.618.726.926 1.662.926 2.81zm-1.67.056c0-.708-.144-1.316-.433-1.822-.338-.613-.82-.918-1.446-.918-.648 0-1.14.306-1.477.918-.29.507-.433 1.124-.433 1.854 0 .708.143 1.315.433 1.82.348.613.835.919 1.462.919.615 0 1.098-.312 1.447-.935.297-.516.446-1.13.446-1.836zM85.09 19.026a2.646 2.646 0 0 0-.507-.047c-.567 0-1.005.227-1.313.68-.268.4-.403.906-.403 1.516v4.028h-1.61l.015-5.26c0-.884-.02-1.69-.06-2.416h1.403l.059 1.469h.044c.17-.505.439-.911.806-1.216a1.877 1.877 0 0 1 1.164-.411c.149 0 .284.01.403.03v1.627zM92.296 21.001c0 .306-.019.564-.059.774h-4.833c.02.758.253 1.338.702 1.738.407.358.934.537 1.58.537.716 0 1.368-.12 1.956-.363l.252 1.184c-.686.317-1.496.474-2.43.474-1.125 0-2.007-.35-2.65-1.05-.64-.7-.961-1.64-.961-2.82 0-1.157.298-2.12.896-2.89.625-.82 1.47-1.23 2.535-1.23 1.044 0 1.835.41 2.373 1.23.425.652.639 1.459.639 2.416zm-1.536-.442c.01-.506-.095-.942-.313-1.311-.279-.475-.707-.711-1.284-.711-.526 0-.955.23-1.282.695-.268.369-.427.811-.477 1.326h3.356v.001zM37.06 8.007c0 .942-.266 1.65-.799 2.127-.493.439-1.195.659-2.103.659-.45 0-.835-.02-1.158-.062V5.586c.42-.072.874-.109 1.364-.109.865 0 1.517.2 1.957.598.492.45.74 1.094.74 1.932zm-.835.024c0-.61-.152-1.079-.457-1.405-.306-.326-.751-.489-1.339-.489-.249 0-.461.018-.637.054v3.912c.097.016.276.023.535.023.606 0 1.073-.179 1.403-.535.33-.357.495-.877.495-1.56zM41.487 8.83c0 .58-.156 1.055-.469 1.428-.328.383-.762.574-1.305.574-.523 0-.939-.183-1.25-.55-.31-.368-.464-.831-.464-1.39 0-.584.16-1.063.48-1.435.32-.372.75-.558 1.293-.558.523 0 .943.183 1.261.55.303.357.454.818.454 1.38zm-.82.027c0-.348-.072-.646-.213-.895-.166-.3-.403-.451-.71-.451-.319 0-.56.15-.727.45-.142.25-.212.553-.212.911 0 .348.071.647.212.895.172.301.41.452.719.452.302 0 .54-.153.71-.46.147-.253.22-.554.22-.902zM47.423 6.975l-1.114 3.771h-.726l-.461-1.637a12.843 12.843 0 0 1-.287-1.219h-.014c-.069.415-.164.82-.286 1.219l-.49 1.637h-.734l-1.048-3.77h.813l.403 1.792c.098.424.178.828.242 1.21h.014c.06-.315.157-.716.294-1.202l.506-1.8h.645l.484 1.762c.117.43.212.843.286 1.241h.022c.053-.388.134-.801.242-1.241l.432-1.762h.777zM51.528 10.746h-.792v-2.16c0-.665-.238-.998-.717-.998a.699.699 0 0 0-.572.274c-.146.184-.22.4-.22.647v2.237h-.792V8.053c0-.331-.01-.69-.029-1.08h.696l.037.59h.022c.092-.183.23-.334.41-.455.215-.14.455-.212.718-.212.332 0 .61.114.829.342.273.279.41.696.41 1.25v2.258zM53.711 10.746h-.791V5.245h.791v5.501zM58.373 8.83c0 .58-.156 1.055-.469 1.428-.328.383-.763.574-1.305.574-.523 0-.94-.183-1.25-.55-.31-.368-.464-.831-.464-1.39 0-.584.16-1.063.48-1.435.32-.372.75-.558 1.292-.558.524 0 .943.183 1.262.55.302.357.454.818.454 1.38zm-.822.027c0-.348-.07-.646-.212-.895-.166-.3-.403-.451-.71-.451-.319 0-.56.15-.726.45-.142.25-.212.553-.212.911 0 .348.071.647.212.895.172.301.41.452.719.452.302 0 .538-.153.71-.46.147-.253.22-.554.22-.902zM62.205 10.747h-.71l-.06-.435h-.022c-.243.347-.59.52-1.04.52-.336 0-.608-.114-.813-.341a1.107 1.107 0 0 1-.279-.768c0-.461.182-.812.547-1.056.364-.243.876-.362 1.536-.356v-.07c0-.498-.247-.746-.74-.746a1.59 1.59 0 0 0-.929.28l-.16-.55c.33-.218.74-.326 1.221-.326.93 0 1.398.52 1.398 1.56v1.388c0 .377.017.677.051.9zm-.822-1.296v-.582c-.873-.016-1.31.238-1.31.76 0 .197.05.344.152.443a.536.536 0 0 0 .387.147.771.771 0 0 0 .484-.175.72.72 0 0 0 .287-.593zM66.705 10.746h-.703l-.037-.605h-.022c-.224.46-.607.691-1.144.691-.429 0-.786-.178-1.07-.535-.283-.357-.424-.82-.424-1.389 0-.61.153-1.105.461-1.482.299-.352.664-.528 1.1-.528.478 0 .813.17 1.003.512h.015V5.245h.793V9.73c0 .368.009.706.028 1.016zm-.82-1.59v-.629c0-.109-.008-.197-.023-.264a.966.966 0 0 0-.286-.508.753.753 0 0 0-.53-.205.8.8 0 0 0-.696.372c-.169.25-.254.567-.254.955 0 .373.08.675.243.908a.802.802 0 0 0 .692.372c.26 0 .468-.103.626-.31.152-.192.227-.422.227-.69zM73.478 8.83c0 .58-.157 1.055-.47 1.428-.327.383-.761.574-1.304.574-.522 0-.939-.183-1.25-.55-.31-.368-.465-.831-.465-1.39 0-.584.16-1.063.48-1.435.32-.372.751-.558 1.294-.558.522 0 .943.183 1.26.55.303.357.455.818.455 1.38zm-.82.027c0-.348-.072-.646-.213-.895-.167-.3-.403-.451-.711-.451-.317 0-.56.15-.726.45-.142.25-.213.553-.213.911 0 .348.072.647.213.895.171.301.41.452.718.452.302 0 .54-.153.711-.46a1.78 1.78 0 0 0 .22-.902zM77.734 10.746h-.79v-2.16c0-.665-.24-.998-.72-.998a.696.696 0 0 0-.57.274c-.147.184-.22.4-.22.647v2.237h-.793V8.053c0-.331-.009-.69-.028-1.08h.695l.037.59h.022c.093-.183.23-.334.41-.455.216-.14.455-.212.72-.212.33 0 .607.114.827.342.275.279.41.696.41 1.25v2.258zM83.063 7.603h-.872v1.832c0 .466.155.698.462.698.141 0 .26-.012.352-.039l.02.636a1.688 1.688 0 0 1-.614.094c-.313 0-.556-.1-.732-.303-.177-.201-.265-.54-.265-1.016V7.603h-.52v-.628h.52v-.691l.776-.248v.938h.872v.63zM87.254 10.746h-.792V8.602c0-.676-.239-1.014-.717-1.014-.367 0-.618.196-.756.588a1.113 1.113 0 0 0-.037.302v2.268h-.79V5.245h.79v2.273h.015c.25-.414.607-.62 1.07-.62.328 0 .6.113.815.341.268.284.402.707.402 1.265v2.242zM91.579 8.682c0 .15-.01.277-.03.38h-2.375c.011.373.124.657.344.854.201.176.46.264.778.264.351 0 .671-.06.96-.178l.124.582c-.338.155-.735.233-1.195.233-.552 0-.986-.172-1.3-.516-.317-.344-.473-.806-.473-1.385 0-.569.146-1.042.44-1.42.307-.403.721-.605 1.245-.605.512 0 .901.202 1.164.605.213.32.318.716.318 1.186zm-.756-.216a1.181 1.181 0 0 0-.153-.644.682.682 0 0 0-.63-.35c-.259 0-.47.114-.63.342-.132.181-.21.398-.236.652h1.65z" fill="#fff"/>
</svg>
